<svg width="78" height="78" viewBox="0 0 78 78" fill="none" xmlns="http://www.w3.org/2000/svg">
<path fill-rule="evenodd" clip-rule="evenodd" d="M77.2319 48.0201L74.771 53.7037C74.5093 54.3169 73.8023 54.5708 73.2163 54.3169C72.6187 54.0591 72.3453 53.3638 72.5992 52.7661L73.3648 51.0044C68.189 53.7935 63.1618 52.5708 58.5328 48.4575C53.4703 43.9497 48.4778 43.9497 43.2668 48.4653C42.7746 48.8911 42.0285 48.8364 41.6027 48.3443C41.1769 47.8521 41.2316 47.106 41.7238 46.6802C47.8136 41.4029 54.0758 41.3364 60.1028 46.6919C64.5286 50.6138 68.8176 51.1763 73.1458 48.3872L69.8646 47.9731C69.2161 47.8911 68.7591 47.3012 68.8412 46.6528C68.9232 46.0044 69.513 45.5473 70.1615 45.6294L76.4154 46.4224C76.6341 46.4732 77.013 46.7154 77.013 46.7779C77.2396 46.9693 77.3177 47.356 77.3177 47.6372L77.2319 48.0201ZM1.95094 48.4654C1.45875 48.8911 0.712641 48.8364 0.286841 48.3443C-0.138939 47.8521 -0.0842485 47.106 0.407931 46.6802C6.49773 41.4029 12.7599 41.3364 18.7869 46.6919C23.2127 50.6099 27.5017 51.1763 31.8339 48.3872L28.5527 47.9731C27.9043 47.8911 27.4472 47.3013 27.5293 46.6528C27.6114 46.0044 28.2012 45.5473 28.8457 45.6294L34.9707 46.399C35.6739 46.4654 36.2324 47.2505 35.9082 48.0396L33.4551 53.7037C33.1934 54.3052 32.4942 54.5747 31.9043 54.3169C31.3067 54.0591 31.0293 53.3638 31.2871 52.7661L32.0528 51.0044C26.877 53.7935 21.8498 52.5708 17.2208 48.4575C12.1544 43.9458 7.16194 43.9497 1.95094 48.4654ZM9.95484 25.2624L36.6228 2.72736L63.2908 25.2624V36.8244C63.2908 37.3908 62.8299 37.8478 62.2674 37.8478H60.2713C59.7049 37.8478 59.2479 37.3868 59.2479 36.8244V27.6877C59.2479 27.34 59.0956 27.0119 58.83 26.7853L37.385 8.66832C36.9475 8.29723 36.2991 8.29723 35.8616 8.66832L14.4206 26.7853C14.155 27.0119 14.0026 27.34 14.0026 27.6877V36.8244C14.0026 37.3908 13.5417 37.8478 12.9792 37.8478H10.9831C10.4167 37.8478 9.9597 37.3868 9.9597 36.8244L9.95484 25.2624ZM10.9782 40.2114H12.9743C14.8415 40.2114 16.3571 38.6919 16.3571 36.8247V28.2349L36.6191 11.1139L56.8851 28.2349V36.8247C56.8851 38.6919 58.4046 40.2114 60.2679 40.2114H62.264C64.1312 40.2114 65.6468 38.6919 65.6468 36.8247L65.6507 24.7157C65.6507 24.368 65.4984 24.0399 65.2328 23.8133L37.3848 0.278318C36.9473 -0.0927725 36.3028 -0.0927725 35.8614 0.278318L8.01338 23.8133C7.74776 24.0399 7.59541 24.368 7.59541 24.7157V36.8287C7.5915 38.692 9.11104 40.2114 10.9782 40.2114ZM63.2902 75.5664H9.95424V57.8364C9.95424 57.2739 10.4113 56.813 10.9776 56.813H12.9737C13.5402 56.813 13.9971 57.2739 13.9971 57.8364V70.3404C13.9971 70.9927 14.5245 71.5201 15.1768 71.5201L58.0638 71.524C58.7162 71.524 59.2435 70.9966 59.2435 70.3443V57.8363C59.2435 57.2738 59.7006 56.8129 60.2669 56.8129H62.263C62.8255 56.8129 63.2864 57.2738 63.2864 57.8363L63.2902 75.5664ZM62.2629 54.4534H60.2668C58.3996 54.4534 56.884 55.9729 56.884 57.8401V69.1641H16.361V57.8361C16.361 55.9689 14.8415 54.4494 12.9782 54.4494H10.9821C9.11494 54.4494 7.59934 55.9689 7.59934 57.8361V76.7461C7.59934 77.3984 8.12668 77.9258 8.77904 77.9258H64.474C65.1264 77.9258 65.6537 77.3984 65.6537 76.7461L65.6498 57.8361C65.6498 55.9728 64.1301 54.4534 62.2629 54.4534Z" fill="black"/>
</svg>

